<svg version="1.0" xmlns="http://www.w3.org/2000/svg" width="700pt" height="700pt" viewBox="0 0 700 700"><g transform="translate(0.000000,700.000000) scale(0.100000,-0.100000)" fill="#000" stroke="none"><path d="M4084 67e2v-3e2l30-1c46 0 776 0 812 0l32 1v3e2 3e2h-437-437v-3e2z"/><path d="M5250 5395V3790h435c239 0 436 3 436 8 1 4 2 726 3 1605l1 1597h-437-438V5395z"/><path d="M2919 6793c-4-33-3-776 1-786 4-9 108-12 438-12h432v403 402h-435c-239 0-435-3-436-7z"/><path d="M2043 5395l2-4e2h436 436l-1 401v401l-437-1h-437l1-401z"/><path d="M876 5190c-1-3-2-318-2-7e2l1-695 438-3 437-2v702 703h-436c-240 0-437-2-438-5z"/><path d="M1025 3198c-27-5-87-27-133-48-68-32-99-55-161-117-105-107-156-212-168-348-8-98-8-2139 0-2197 31-2e2 185-382 388-456l74-27 2420-2c1680-2 2434 1 2465 8 25 6 53 12 63 14 37 8 127 54 180 93 108 80 190 206 221 342 22 93 22 2189 0 2289-42 197-197 366-397 434l-62 22-2420 1c-1473 1-2440-2-2470-8zm983-876c5-8 7-491 3-559-1-10-66-13-291-13h-290v289c0 184 4 291 10 293 27 9 563 0 568-10zm875 9c4-1 7-131 7-291v-290h-290c-159 0-291 3-291 8-1 4-2 134-3 289-1 276-1 282 19 285 17 3 535 1 558-1zm881-287v-289l-292-3-292-2v288c0 159 2 291 4 293s134 4 292 3l288-1v-289zm873-2 1-292-291 2-292 3-1 280c0 154 1 285 3 290 2 6 107 10 291 9l287-1 2-291zm853 289 25-1-1-287v-288l-292-3-292-2v289c0 184 4 291 10 293 9 3 479 2 550-1zm-3479-885c1-16 1-527 0-551-1-20-6-21-291-20h-290v291 291h290c211 1 290-2 291-11zm877-280-3-291h-290-290l-1 285c0 157 1 288 2 291 2 3 134 6 294 6l290 1-2-292zm874 280c3-9 2-551-1-566-1-3-131-5-291-5h-290v291 291h289c208 1 291-3 293-11zm875-276c1-156-2-287-7-290-7-4-553-6-570-1-4 1-5 510-1 562 1 15 29 17 289 15l287-1 2-285zm877 13c1-149-1-280-4-290-5-17-23-18-292-18h-288v291 292l292-1 292-2v-272z"/></g></svg>