<svg xmlns="http://www.w3.org/2000/svg" viewBox="0 0 64 64">
  <defs>
    <linearGradient id="bg" x1="0" y1="0" x2="0" y2="1">
      <stop offset="0%" stop-color="#33335a"/>
      <stop offset="100%" stop-color="#20203d"/>
    </linearGradient>
    <linearGradient id="c1" x1="0" y1="0" x2="0" y2="1">
      <stop offset="0%" stop-color="#4de3ff"/>
      <stop offset="100%" stop-color="#1aa8e0"/>
    </linearGradient>
    <linearGradient id="c2" x1="0" y1="0" x2="0" y2="1">
      <stop offset="0%" stop-color="#ff5ec1"/>
      <stop offset="100%" stop-color="#e0219e"/>
    </linearGradient>
    <linearGradient id="c3" x1="0" y1="0" x2="0" y2="1">
      <stop offset="0%" stop-color="#ffe14d"/>
      <stop offset="100%" stop-color="#f0a800"/>
    </linearGradient>
    <linearGradient id="c4" x1="0" y1="0" x2="0" y2="1">
      <stop offset="0%" stop-color="#6effa0"/>
      <stop offset="100%" stop-color="#25c96b"/>
    </linearGradient>
  </defs>

  <rect x="2" y="2" width="60" height="60" rx="12" fill="url(#bg)"/>

  <rect x="7"  y="6" width="11" height="52" fill="#ffffff" opacity="0.05"/>
  <rect x="20" y="6" width="11" height="52" fill="#ffffff" opacity="0.05"/>
  <rect x="33" y="6" width="11" height="52" fill="#ffffff" opacity="0.05"/>
  <rect x="46" y="6" width="11" height="52" fill="#ffffff" opacity="0.05"/>

  <rect x="5" y="46" width="54" height="4" rx="2" fill="#ffffff" opacity="0.9"/>
  <rect x="5" y="46" width="54" height="4" rx="2" fill="#ffffff" opacity="0.35">
    <animate attributeName="opacity" values="0.9;0.25;0.9" dur="1.2s" repeatCount="indefinite"/>
  </rect>

  <rect x="7"  y="6"  width="11" height="9" rx="2.5" fill="url(#c1)"/>
  <rect x="7"  y="26" width="11" height="9" rx="2.5" fill="url(#c1)"/>
  <rect x="20" y="14" width="11" height="9" rx="2.5" fill="url(#c3)"/>
  <rect x="33" y="8"  width="11" height="9" rx="2.5" fill="url(#c2)"/>
  <rect x="33" y="32" width="11" height="9" rx="2.5" fill="url(#c2)"/>
  <rect x="46" y="20" width="11" height="9" rx="2.5" fill="url(#c4)"/>
</svg>
