<?xml version="1.0" standalone="no"?>
<!DOCTYPE svg PUBLIC "-//W3C//DTD SVG 20010904//EN"
 "http://www.w3.org/TR/2001/REC-SVG-20010904/DTD/svg10.dtd">
<svg version="1.0" xmlns="http://www.w3.org/2000/svg"
 width="700.000000pt" height="700.000000pt" viewBox="0 0 700.000000 700.000000"
 preserveAspectRatio="xMidYMid meet">
<metadata>
Created by potrace 1.14, written by Peter Selinger 2001-2017
</metadata>
<g transform="translate(0.000000,700.000000) scale(0.100000,-0.100000)"
fill="#000000" stroke="none">
<path d="M4084 6700 l0 -300 30 -1 c46 0 776 0 812 0 l32 1 0 300 0 300 -437
0 -437 0 0 -300z"/>
<path d="M5250 5395 l0 -1605 435 0 c239 0 436 3 436 8 1 4 2 726 3 1605 l1
1597 -437 0 -438 0 0 -1605z"/>
<path d="M2919 6793 c-4 -33 -3 -776 1 -786 4 -9 108 -12 438 -12 l432 0 0
403 0 402 -435 0 c-239 0 -435 -3 -436 -7z"/>
<path d="M2043 5395 l2 -400 436 0 436 0 -1 401 0 401 -437 -1 -437 0 1 -401z"/>
<path d="M876 5190 c-1 -3 -2 -318 -2 -700 l1 -695 438 -3 437 -2 0 702 0 703
-436 0 c-240 0 -437 -2 -438 -5z"/>
<path d="M1025 3198 c-27 -5 -87 -27 -133 -48 -68 -32 -99 -55 -161 -117 -105
-107 -156 -212 -168 -348 -8 -98 -8 -2139 0 -2197 31 -200 185 -382 388 -456
l74 -27 2420 -2 c1680 -2 2434 1 2465 8 25 6 53 12 63 14 37 8 127 54 180 93
108 80 190 206 221 342 22 93 22 2189 0 2289 -42 197 -197 366 -397 434 l-62
22 -2420 1 c-1473 1 -2440 -2 -2470 -8z m983 -876 c5 -8 7 -491 3 -559 -1 -10
-66 -13 -291 -13 l-290 0 0 289 c0 184 4 291 10 293 27 9 563 0 568 -10z m875
9 c4 -1 7 -131 7 -291 l0 -290 -290 0 c-159 0 -291 3 -291 8 -1 4 -2 134 -3
289 -1 276 -1 282 19 285 17 3 535 1 558 -1z m881 -287 l0 -289 -292 -3 -292
-2 0 288 c0 159 2 291 4 293 2 2 134 4 292 3 l288 -1 0 -289z m873 -2 l1 -292
-291 2 -292 3 -1 280 c0 154 1 285 3 290 2 6 107 10 291 9 l287 -1 2 -291z
m853 289 l25 -1 -1 -287 0 -288 -292 -3 -292 -2 0 289 c0 184 4 291 10 293 9
3 479 2 550 -1z m-3479 -885 c1 -16 1 -527 0 -551 -1 -20 -6 -21 -291 -20
l-290 0 0 291 0 291 290 0 c211 1 290 -2 291 -11z m877 -280 l-3 -291 -290 0
-290 0 -1 285 c0 157 1 288 2 291 2 3 134 6 294 6 l290 1 -2 -292z m874 280
c3 -9 2 -551 -1 -566 -1 -3 -131 -5 -291 -5 l-290 0 0 291 0 291 289 0 c208 1
291 -3 293 -11z m875 -276 c1 -156 -2 -287 -7 -290 -7 -4 -553 -6 -570 -1 -4
1 -5 510 -1 562 1 15 29 17 289 15 l287 -1 2 -285z m877 13 c1 -149 -1 -280
-4 -290 -5 -17 -23 -18 -292 -18 l-288 0 0 291 0 292 292 -1 292 -2 0 -272z"/>
</g>
</svg>
